<svg width="29" height="29" viewBox="0 0 29 29" fill="none" xmlns="http://www.w3.org/2000/svg">
<path d="M15.7083 10.875H22.3541L15.7083 4.22913V10.875ZM7.24992 2.41663H16.9166L24.1666 9.66663V24.1666C24.1666 24.8076 23.912 25.4223 23.4588 25.8755C23.0055 26.3287 22.3909 26.5833 21.7499 26.5833H7.24992C5.90867 26.5833 4.83325 25.4958 4.83325 24.1666V4.83329C4.83325 3.49204 5.90867 2.41663 7.24992 2.41663ZM16.9166 24.1666V22.9583C16.9166 21.3512 13.6903 20.5416 12.0833 20.5416C10.4762 20.5416 7.24992 21.3512 7.24992 22.9583V24.1666H16.9166ZM12.0833 14.5C11.4423 14.5 10.8276 14.7546 10.3744 15.2078C9.9212 15.661 9.66659 16.2757 9.66659 16.9166C9.66659 17.5576 9.9212 18.1723 10.3744 18.6255C10.8276 19.0787 11.4423 19.3333 12.0833 19.3333C12.7242 19.3333 13.3389 19.0787 13.7921 18.6255C14.2453 18.1723 14.4999 17.5576 14.4999 16.9166C14.4999 16.2757 14.2453 15.661 13.7921 15.2078C13.3389 14.7546 12.7242 14.5 12.0833 14.5Z" fill="black"/>
</svg>
