<svg width="29" height="29" viewBox="0 0 29 29" fill="none" xmlns="http://www.w3.org/2000/svg">
<path d="M14.5001 2.41663C12.9133 2.41663 11.342 2.72917 9.87599 3.33642C8.40997 3.94366 7.07792 4.83371 5.95587 5.95575C3.68981 8.22182 2.41675 11.2953 2.41675 14.5C2.41675 19.8408 5.88466 24.372 10.6817 25.9791C11.2859 26.0758 11.4792 25.7012 11.4792 25.375C11.4792 25.097 11.4792 24.3358 11.4792 23.3329C8.13216 24.0579 7.41925 21.7137 7.41925 21.7137C6.86341 20.312 6.078 19.9375 6.078 19.9375C4.97841 19.1883 6.16258 19.2125 6.16258 19.2125C7.37091 19.297 8.01133 20.457 8.01133 20.457C9.06258 22.2937 10.8388 21.75 11.5276 21.46C11.6363 20.6745 11.9505 20.1429 12.2888 19.8408C9.60633 19.5387 6.79091 18.4995 6.79091 13.8958C6.79091 12.5545 7.25008 11.4791 8.0355 10.6212C7.91466 10.3191 7.49175 9.06246 8.15633 7.43121C8.15633 7.43121 9.17133 7.10496 11.4792 8.66371C12.4338 8.39788 13.473 8.26496 14.5001 8.26496C15.5272 8.26496 16.5663 8.39788 17.5209 8.66371C19.8288 7.10496 20.8438 7.43121 20.8438 7.43121C21.5084 9.06246 21.0855 10.3191 20.9647 10.6212C21.7501 11.4791 22.2092 12.5545 22.2092 13.8958C22.2092 18.5116 19.3817 19.5266 16.6872 19.8287C17.1222 20.2033 17.5209 20.9404 17.5209 22.0641C17.5209 23.6833 17.5209 24.9883 17.5209 25.375C17.5209 25.7012 17.7142 26.0879 18.3305 25.9791C23.1276 24.36 26.5834 19.8408 26.5834 14.5C26.5834 12.9132 26.2709 11.3419 25.6636 9.87587C25.0564 8.40985 24.1663 7.07779 23.0443 5.95575C21.9222 4.83371 20.5902 3.94366 19.1242 3.33642C17.6582 2.72917 16.0869 2.41663 14.5001 2.41663Z" fill="black"/>
</svg>
