<svg width="29" height="29" viewBox="0 0 29 29" fill="none" xmlns="http://www.w3.org/2000/svg">
<path d="M9.42496 2.41663H19.575C23.4416 2.41663 26.5833 5.55829 26.5833 9.42496V19.575C26.5833 21.4337 25.8449 23.2163 24.5306 24.5306C23.2163 25.8449 21.4337 26.5833 19.575 26.5833H9.42496C5.55829 26.5833 2.41663 23.4416 2.41663 19.575V9.42496C2.41663 7.56623 3.155 5.78364 4.46932 4.46932C5.78364 3.155 7.56623 2.41663 9.42496 2.41663ZM9.18329 4.83329C8.0296 4.83329 6.92316 5.29159 6.10738 6.10738C5.29159 6.92316 4.83329 8.0296 4.83329 9.18329V19.8166C4.83329 22.2212 6.77871 24.1666 9.18329 24.1666H19.8166C20.9703 24.1666 22.0768 23.7083 22.8925 22.8925C23.7083 22.0768 24.1666 20.9703 24.1666 19.8166V9.18329C24.1666 6.77871 22.2212 4.83329 19.8166 4.83329H9.18329ZM20.8437 6.64579C21.2443 6.64579 21.6285 6.80493 21.9117 7.08818C22.195 7.37144 22.3541 7.75562 22.3541 8.15621C22.3541 8.5568 22.195 8.94098 21.9117 9.22423C21.6285 9.50749 21.2443 9.66663 20.8437 9.66663C20.4431 9.66663 20.0589 9.50749 19.7757 9.22423C19.4924 8.94098 19.3333 8.5568 19.3333 8.15621C19.3333 7.75562 19.4924 7.37144 19.7757 7.08818C20.0589 6.80493 20.4431 6.64579 20.8437 6.64579ZM14.5 8.45829C16.1023 8.45829 17.639 9.09482 18.7721 10.2279C19.9051 11.3609 20.5416 12.8976 20.5416 14.5C20.5416 16.1023 19.9051 17.639 18.7721 18.7721C17.639 19.9051 16.1023 20.5416 14.5 20.5416C12.8976 20.5416 11.3609 19.9051 10.2279 18.7721C9.09482 17.639 8.45829 16.1023 8.45829 14.5C8.45829 12.8976 9.09482 11.3609 10.2279 10.2279C11.3609 9.09482 12.8976 8.45829 14.5 8.45829ZM14.5 10.875C13.5385 10.875 12.6165 11.2569 11.9367 11.9367C11.2569 12.6165 10.875 13.5385 10.875 14.5C10.875 15.4614 11.2569 16.3834 11.9367 17.0632C12.6165 17.743 13.5385 18.125 14.5 18.125C15.4614 18.125 16.3834 17.743 17.0632 17.0632C17.743 16.3834 18.125 15.4614 18.125 14.5C18.125 13.5385 17.743 12.6165 17.0632 11.9367C16.3834 11.2569 15.4614 10.875 14.5 10.875Z" fill="black"/>
</svg>
