<svg width="29" height="29" viewBox="0 0 29 29" fill="none" xmlns="http://www.w3.org/2000/svg">
<path d="M22.9583 3.625C23.5993 3.625 24.214 3.87961 24.6672 4.33283C25.1204 4.78604 25.375 5.40073 25.375 6.04167V22.9583C25.375 23.5993 25.1204 24.214 24.6672 24.6672C24.214 25.1204 23.5993 25.375 22.9583 25.375H6.04167C5.40073 25.375 4.78604 25.1204 4.33283 24.6672C3.87961 24.214 3.625 23.5993 3.625 22.9583V6.04167C3.625 5.40073 3.87961 4.78604 4.33283 4.33283C4.78604 3.87961 5.40073 3.625 6.04167 3.625H22.9583ZM22.3542 22.3542V15.95C22.3542 14.9053 21.9391 13.9033 21.2004 13.1646C20.4617 12.4259 19.4597 12.0108 18.415 12.0108C17.3879 12.0108 16.1917 12.6392 15.6117 13.5817V12.2404H12.2404V22.3542H15.6117V16.3971C15.6117 15.4667 16.3608 14.7054 17.2913 14.7054C17.7399 14.7054 18.1702 14.8836 18.4874 15.2009C18.8047 15.5181 18.9829 15.9484 18.9829 16.3971V22.3542H22.3542ZM8.31333 10.3433C8.85172 10.3433 9.36806 10.1295 9.74876 9.74876C10.1295 9.36806 10.3433 8.85172 10.3433 8.31333C10.3433 7.18958 9.43708 6.27125 8.31333 6.27125C7.77174 6.27125 7.25233 6.4864 6.86936 6.86936C6.4864 7.25233 6.27125 7.77174 6.27125 8.31333C6.27125 9.43708 7.18958 10.3433 8.31333 10.3433ZM9.99292 22.3542V12.2404H6.64583V22.3542H9.99292Z" fill="black"/>
</svg>
